<?xml version="1.0" encoding="utf-8"?>
<!-- Generator: Adobe Illustrator 23.0.3, SVG Export Plug-In . SVG Version: 6.00 Build 0)  -->
<svg version="1.1" id="Layer_1" xmlns="http://www.w3.org/2000/svg" xmlns:xlink="http://www.w3.org/1999/xlink" x="0px" y="0px"
	 viewBox="0 0 32 32" style="enable-background:new 0 0 32 32;" xml:space="preserve">
<style type="text/css">
	.st0{fill:#FFFFFF;}
	.st1{fill:#0E1725;}
</style>
<path class="st0" d="M12,0h8c6.6,0,12,5.4,12,12v8c0,6.6-5.4,12-12,12h-8C5.4,32,0,26.6,0,20v-8C0,5.4,5.4,0,12,0z"/>
<path class="st1" d="M19.8,17.3c0.7,0,1.3-0.4,1.4-1l0-0.3c0.1-0.8-0.5-1.5-1.4-1.5c-0.8,0-1.4-0.6-1.4-1.3v-0.5c0-0.8,1.1-1,2.5-1
	c0.8,0,0.8-1.1,0.8-1.8v0c0-0.6-0.5-1.2-1.2-1.2c-0.4,0-0.8-0.1-1.3-0.1c-2.6,0-4.2,1.3-4.2,3.7v0.9c0,0.7-0.6,1.3-1.4,1.3
	c-0.8,0-1.4,0.6-1.4,1.3v0.3c0,0.7,0.6,1.3,1.4,1.3c0.8,0,1.4,0.6,1.4,1.3v3.9c0,0.9,0.7,1.7,1.8,1.7c1,0,1.8-0.8,1.8-1.7v-3.9
	C18.4,17.9,19,17.3,19.8,17.3z"/>
</svg>
