<svg id="b48e1f72-21a3-4b5b-9221-1e7daf0d3a0b" data-name="Layer 1" xmlns="http://www.w3.org/2000/svg" width="11.29mm" height="11.29mm" viewBox="0 0 32 32"><title>f_insta</title><rect width="32" height="32" rx="12" fill="#fff"/><path d="M9.15,14.88c0-2.86,0-4.29.89-5.17s2.32-.89,5.18-.89h1.51c2.86,0,4.29,0,5.18.89s.89,2.31.89,5.17V16.4c0,2.86,0,4.29-.89,5.18s-2.32.89-5.18.89H15.22c-2.86,0-4.29,0-5.18-.89s-.89-2.32-.89-5.18Zm11.37-2.65a1.14,1.14,0,0,1-.33.8,1.12,1.12,0,0,1-1.61,0,1.13,1.13,0,0,1,0-1.6,1.12,1.12,0,0,1,1.61,0A1.14,1.14,0,0,1,20.52,12.23Zm-3,4.17a1.52,1.52,0,1,1-.44-1.07A1.52,1.52,0,0,1,17.49,16.4Zm1.52,0a3,3,0,1,1-6.07,0,3,3,0,0,1,6.07,0Z" transform="translate(0 0)" fill="#0e1725" fill-rule="evenodd"/></svg>