<?xml version="1.0" encoding="utf-8"?>
<!-- Generator: Adobe Illustrator 23.0.3, SVG Export Plug-In . SVG Version: 6.00 Build 0)  -->
<svg version="1.1" id="aa18e7f2-9218-4407-9db4-00b5874aa9eb"
	 xmlns="http://www.w3.org/2000/svg" xmlns:xlink="http://www.w3.org/1999/xlink" x="0px" y="0px" viewBox="0 0 182.9 30.7"
	 style="enable-background:new 0 0 182.9 30.7;" xml:space="preserve">
<style type="text/css">
	.st0{fill:#DC343B;}
	.st1{fill:none;}
	.st2{fill:#FFD700;}
	.st3{fill:#DC343B;stroke:#DC343B;stroke-width:0.15;stroke-miterlimit:10;}
</style>
<title>grv_2</title>
<path class="st0" d="M40.1,10.6l-2,2c-1.1-1.3-2.8-2-4.5-2c-1.4,0-2.7,0.5-3.7,1.5c-1,0.9-1.5,2.2-1.5,3.6c0,1.4,0.6,2.7,1.6,3.7
	c1,1,2.4,1.6,3.8,1.5c0.9,0,1.7-0.2,2.5-0.6c0.7-0.5,1.3-1.2,1.7-2h-4.4v-2.7h7.6v0.6c0,1.3-0.3,2.6-1,3.8c-0.6,1.1-1.5,2.1-2.7,2.7
	c-1.2,0.6-2.5,1-3.8,0.9c-1.5,0-2.9-0.3-4.2-1c-1.2-0.7-2.2-1.7-2.9-2.9c-0.7-1.2-1.1-2.6-1.1-4.1c0-1.9,0.7-3.8,2-5.2
	c1.5-1.7,3.8-2.7,6.1-2.6c1.3,0,2.5,0.2,3.7,0.7C38.4,9,39.4,9.7,40.1,10.6z"/>
<path class="st0" d="M44,8.1h3c1.2-0.1,2.4,0.1,3.6,0.4c0.7,0.3,1.3,0.8,1.7,1.5c0.5,0.7,0.7,1.6,0.7,2.4c0,0.9-0.2,1.7-0.7,2.5
	c-0.5,0.7-1.3,1.2-2.2,1.5l3.6,6.7h-3.1l-3.4-6.4h-0.3v6.4H44V8.1z M46.9,14h0.9c0.7,0.1,1.3-0.1,1.9-0.4c0.4-0.3,0.6-0.7,0.5-1.2
	c0-0.3-0.1-0.6-0.3-0.9c-0.2-0.2-0.4-0.4-0.7-0.5c-0.5-0.1-1-0.2-1.6-0.2h-0.8V14z"/>
<path class="st0" d="M54.9,8.1h3l3.8,10.7l3.8-10.7h3L63,23.2h-2.8L54.9,8.1z"/>
<path class="st0" d="M81.2,8.1h2.9l5.8,15.1H87l-1.2-3.1h-6.2l-1.2,3.1h-3L81.2,8.1z M82.7,12.1l-2,5.2h4L82.7,12.1z"/>
<path class="st0" d="M98.7,13.6l-1.7,1.7c-0.5-0.6-1.2-0.9-1.9-1c-0.3,0-0.5,0.1-0.7,0.2C94.1,14.6,94,14.8,94,15
	c0,0.2,0.1,0.3,0.2,0.4c0.2,0.2,0.5,0.4,0.8,0.5l1,0.5c0.9,0.4,1.6,0.9,2.2,1.6c1,1.4,0.8,3.3-0.5,4.4c-0.8,0.7-1.9,1.1-2.9,1
	c-1.5,0-2.9-0.7-3.8-1.9l1.7-1.9c0.3,0.4,0.7,0.7,1.2,0.9c0.4,0.2,0.8,0.3,1.2,0.4c0.3,0,0.6-0.1,0.9-0.3c0.2-0.1,0.3-0.4,0.3-0.6
	c0-0.4-0.4-0.9-1.2-1.3l-0.9-0.5c-1.8-0.9-2.7-2-2.7-3.4c0-0.9,0.4-1.7,1-2.3c0.7-0.6,1.6-1,2.6-0.9c0.7,0,1.4,0.2,2,0.5
	C97.7,12.6,98.2,13,98.7,13.6z"/>
<path class="st0" d="M107.9,13.6l-1.7,1.7c-0.5-0.6-1.2-0.9-1.9-1c-0.3,0-0.5,0.1-0.7,0.2c-0.2,0.1-0.3,0.3-0.3,0.5
	c0,0.2,0.1,0.3,0.2,0.4c0.2,0.2,0.5,0.4,0.8,0.5l1,0.5c0.9,0.4,1.6,0.9,2.2,1.6c1,1.4,0.8,3.3-0.5,4.4c-0.8,0.7-1.9,1.1-2.9,1
	c-1.5,0-3-0.7-3.9-1.9l1.7-1.9c0.3,0.4,0.7,0.7,1.2,0.9c0.4,0.2,0.8,0.3,1.2,0.4c0.3,0,0.6-0.1,0.9-0.3c0.2-0.1,0.3-0.4,0.3-0.6
	c0-0.4-0.4-0.9-1.2-1.3l-0.9-0.5c-1.8-0.9-2.7-2-2.7-3.4c0-0.9,0.4-1.7,1-2.3c0.7-0.6,1.7-1,2.6-0.9c0.7,0,1.4,0.2,2.1,0.5
	C106.9,12.6,107.5,13,107.9,13.6z"/>
<path class="st0" d="M115.6,11.8c1.1,0,2.1,0.3,3,0.8c0.9,0.5,1.7,1.2,2.2,2.1c1,1.8,1,4.1,0,5.9c-0.5,0.9-1.2,1.6-2.1,2.1
	c-0.9,0.5-1.9,0.8-3,0.8c-1.5,0-3-0.6-4.1-1.7c-1.1-1.1-1.7-2.6-1.7-4.1c0-1.6,0.7-3.2,1.9-4.3C112.7,12.3,114.1,11.8,115.6,11.8z
	 M115.6,14.4c-0.8,0-1.6,0.3-2.2,0.9c-0.6,0.6-0.9,1.5-0.9,2.3c0,0.9,0.3,1.7,0.8,2.4c1.2,1.2,3.2,1.2,4.4,0c0,0,0,0,0,0
	c0.6-0.6,0.9-1.5,0.9-2.4c0-0.8-0.2-1.7-0.8-2.3C117.2,14.7,116.4,14.4,115.6,14.4L115.6,14.4z"/>
<path class="st0" d="M134.7,14.3l-2.3,1.3c-0.4-0.4-0.8-0.7-1.3-0.9c-0.5-0.2-1-0.3-1.5-0.3c-0.9,0-1.9,0.3-2.6,0.9
	c-0.7,0.6-1,1.5-1,2.4c0,0.9,0.3,1.7,0.9,2.3c0.7,0.6,1.5,1,2.4,0.9c1.1,0.1,2.2-0.4,2.9-1.3l2.2,1.5c-1.2,1.6-3.1,2.4-5.1,2.3
	c-1.7,0.1-3.4-0.5-4.6-1.7c-2.3-2.3-2.3-5.9,0-8.2c0.4-0.4,0.9-0.8,1.4-1c1-0.5,2.1-0.8,3.2-0.8c1,0,2.1,0.2,3,0.7
	C133.4,12.9,134.1,13.5,134.7,14.3z"/>
<path class="st0" d="M138.3,7.5c0.5,0,0.9,0.2,1.3,0.5c0.3,0.3,0.5,0.8,0.5,1.3c0,0.5-0.2,0.9-0.5,1.3c-0.3,0.3-0.8,0.5-1.3,0.5
	c-0.5,0-0.9-0.2-1.3-0.5c-0.3-0.3-0.5-0.8-0.5-1.3c0-0.5,0.2-0.9,0.5-1.3C137.3,7.6,137.8,7.5,138.3,7.5z M136.9,12.1h2.8v11.2h-2.8
	V12.1z"/>
<path class="st0" d="M150.5,12.1h2.8v11.2h-2.8V22c-0.5,0.5-1,0.9-1.6,1.1c-0.6,0.2-1.2,0.3-1.8,0.3c-1.4,0-2.8-0.6-3.7-1.7
	c-1.1-1.1-1.6-2.6-1.6-4.2c-0.1-1.6,0.5-3.1,1.5-4.2c0.9-1.1,2.3-1.7,3.7-1.6c0.6,0,1.3,0.1,1.9,0.4c0.6,0.3,1.1,0.7,1.6,1.2V12.1z
	 M147.5,14.3c-0.8,0-1.6,0.3-2.1,0.9c-0.6,0.6-0.9,1.5-0.9,2.4c0,0.9,0.3,1.7,0.9,2.4c0.5,0.6,1.3,1,2.1,0.9c0.8,0,1.6-0.3,2.2-0.9
	c0.6-0.7,0.9-1.5,0.9-2.4c0-0.9-0.3-1.7-0.9-2.4C149.2,14.6,148.4,14.3,147.5,14.3z"/>
<path class="st0" d="M156.4,7.9h2.8v4.1h1.7v2.4h-1.7v8.7h-2.8v-8.7H155v-2.4h1.4L156.4,7.9z"/>
<path class="st0" d="M173.6,18.4h-9c0.1,0.7,0.4,1.4,1,1.9c0.6,0.5,1.4,0.7,2.2,0.7c1,0,2-0.4,2.7-1.1l2.4,1.1
	c-0.5,0.8-1.3,1.4-2.1,1.9c-0.9,0.4-1.9,0.6-2.9,0.6c-1.6,0.1-3.1-0.5-4.3-1.7c-1.1-1.1-1.7-2.6-1.6-4.1c0-1.6,0.5-3.1,1.6-4.3
	c1.1-1.1,2.6-1.7,4.1-1.7c1.6-0.1,3.2,0.5,4.3,1.7c1.1,1.2,1.7,2.8,1.6,4.5L173.6,18.4z M170.8,16.2c-0.2-0.6-0.6-1.2-1.1-1.5
	c-0.6-0.4-1.2-0.6-1.9-0.6c-0.7,0-1.4,0.2-2,0.6c-0.4,0.4-0.8,0.9-1,1.5H170.8z"/>
<path class="st0" d="M182.7,13.6l-1.7,1.7c-0.5-0.6-1.2-0.9-1.9-1c-0.3,0-0.5,0.1-0.7,0.2c-0.2,0.1-0.3,0.3-0.3,0.5
	c0,0.2,0.1,0.3,0.2,0.4c0.2,0.2,0.5,0.4,0.8,0.5l1,0.5c0.9,0.4,1.6,0.9,2.2,1.6c1,1.4,0.8,3.3-0.5,4.4c-0.8,0.7-1.9,1.1-2.9,1
	c-1.5,0-3-0.7-3.9-1.9l1.7-1.9c0.3,0.4,0.7,0.7,1.2,0.9c0.4,0.2,0.8,0.3,1.2,0.4c0.3,0,0.6-0.1,0.9-0.3c0.2-0.1,0.3-0.4,0.3-0.6
	c0-0.4-0.4-0.9-1.2-1.3l-0.9-0.5c-1.8-0.9-2.7-2-2.7-3.4c0-0.9,0.4-1.7,1-2.3c0.7-0.6,1.7-1,2.6-0.9c0.7,0,1.4,0.2,2.1,0.5
	C181.6,12.6,182.2,13,182.7,13.6z"/>
<path class="st0" d="M18.6,3.7v22.6l1.3,0.2c0.1,0,0.1,0,0.2,0c0.1,0,0.1,0,0.1-0.1c0,0,0.1-0.1,0.1-0.1c0-0.1,0-0.1,0-0.2V3.8
	c0,0,0-0.1,0-0.1c0,0,0-0.1-0.1-0.1l-0.1-0.1H20L18.6,3.7 M18.6,1.9l2.8-0.3c0.2,0,0.4,0,0.6,0.2C22,1.9,22.1,2,22.1,2
	c0,0.1,0.1,0.2,0.1,0.3v25.4c0.1,0.6-0.3,1.1-0.9,1.2c-0.2,0-0.3,0-0.5,0l-2.2-0.4c0,1.2,0.1,2.3-1.3,2.1c-0.4,0-16.2-2-16.5-2
	c-0.2,0-0.4-0.2-0.6-0.3C0.1,28.1,0,27.9,0,27.6V3.7C0,3,0,2.3,0.8,2.1C1.1,2,17,0,17.2,0c0.2,0,0.4,0,0.6,0.1
	c0.2,0.1,0.4,0.3,0.5,0.5C18.6,1,18.7,1.4,18.6,1.9"/>
<g>
	<g>
	</g>
</g>
<line class="st1" x1="19.8" y1="3.5" x2="19.5" y2="27.2"/>
<path class="st0" d="M11.9,16.3H4.8c-1.3,0-2.4-1.1-2.4-2.4v0c0-1.3,1.1-2.4,2.4-2.4h7.2c1.3,0,2.4,1.1,2.4,2.4v0
	C14.3,15.3,13.2,16.3,11.9,16.3z"/>
<g>
	<g>
		<path class="st2" d="M3.9,14.6l1-2.1h0.4l-0.9,2h1.4v0.4H3.9V14.6z M5.2,13.7h0.4v1.7H5.2V13.7z"/>
		<path class="st2" d="M7.7,15.3c-0.1-0.1-0.2-0.1-0.3-0.2s-0.1-0.2-0.1-0.4v0h0.4v0c0,0.1,0.1,0.2,0.1,0.2S8,15,8.1,15
			c0.1,0,0.2,0,0.3-0.1s0.1-0.2,0.1-0.4v-0.2c0-0.2,0-0.3-0.1-0.4s-0.2-0.1-0.3-0.1c-0.1,0-0.1,0-0.2,0.1S7.8,14,7.8,14H7.4v-1.5
			h1.4v0.4h-1v0.6c0,0,0.1-0.1,0.2-0.1s0.1,0,0.2,0c0.2,0,0.3,0,0.4,0.1s0.2,0.2,0.3,0.3s0.1,0.3,0.1,0.5v0.2c0,0.2,0,0.3-0.1,0.5
			s-0.2,0.2-0.3,0.3s-0.3,0.1-0.4,0.1C8,15.4,7.9,15.4,7.7,15.3z"/>
		<path class="st2" d="M10.9,15.3c-0.1-0.1-0.2-0.2-0.3-0.3s-0.1-0.3-0.1-0.5v0c0-0.1,0-0.2,0-0.3s0.1-0.2,0.1-0.3c0,0,0,0,0-0.1
			s0,0,0-0.1l0.6-1.2h0.4L11,14l0-0.1c0-0.1,0.1-0.1,0.1-0.1s0.1-0.1,0.2-0.1c0.1,0,0.3,0,0.4,0.1S12,14,12,14.1s0.1,0.3,0.1,0.5v0
			c0,0.2,0,0.3-0.1,0.5s-0.2,0.2-0.3,0.3s-0.3,0.1-0.4,0.1S11,15.4,10.9,15.3z M11.6,14.9c0.1-0.1,0.1-0.2,0.1-0.3v0
			c0-0.2,0-0.3-0.1-0.4s-0.2-0.1-0.3-0.1c-0.1,0-0.2,0-0.3,0.1s-0.1,0.2-0.1,0.4v0c0,0.1,0,0.3,0.1,0.3s0.2,0.1,0.3,0.1
			C11.4,15,11.5,15,11.6,14.9z"/>
	</g>
</g>
<line class="st1" x1="19.8" y1="3.5" x2="19.6" y2="28.7"/>
<line class="st3" x1="19.5" y1="2.5" x2="19.5" y2="27.2"/>
<line class="st3" x1="19.9" y1="3.4" x2="19.9" y2="28"/>
<line class="st3" x1="18.9" y1="3.5" x2="18.9" y2="28.2"/>
</svg>
